# xmcd
#
# Track frame offsets:
#	150
#	19190
#	31352
#	50697
#	68005
#	81405
#	97820
#	112795
#	127100
#	139930
#	155882
#	177615
#	196447
#	212292
#
# Disc length: 3007 seconds
#
# Revision: 1
# Processed by: cddbd v1.5.2PL0 Copyright (c) Steve Scherf et al.
# Submitted via: audiograbber 1.83.01
#
DISCID=c60bbd0e
DTITLE=Various Artist - CDXMAS 1003
DYEAR=1993
DGENRE=Country
TTITLE0=Alabama - Angels Among Us
TTITLE1=Clinton Gregory - Christmas In Texas
TTITLE2=Floyd Cramer - Christmas Medley
TTITLE3=Jerry Reed - Christmas Rappin'
TTITLE4=Alan Jackson - Honky Tonk Christmas
TTITLE5=Wynonna - Let's Make A Baby King
TTITLE6=Kathy Mattea - Mary Did You Know
TTITLE7=Kathie Lee Gifford - Silver Bells
TTITLE8=The Statler Brothers - The Carols Those Kids Used To Sing
TTITLE9=Reba McEntire - The Christmas Song
TTITLE10=Garth Brooks - The Gift
TTITLE11=Kathy Mattea - There's A New Kid In Town
TTITLE12=Randy Travis - White Christmas Makes Me Blue
TTITLE13=Caroling Cattle - Santa Cow
EXTD=
EXTT0=
EXTT1=
EXTT2=
EXTT3=
EXTT4=
EXTT5=
EXTT6=
EXTT7=
EXTT8=
EXTT9=
EXTT10=
EXTT11=
EXTT12=
EXTT13=
PLAYORDER=
